<?xml version="1.0" encoding="UTF-8"?>
<svg id="a" version="1.1" viewBox="0 0 48 48" xmlns="http://www.w3.org/2000/svg">
 <defs id="defs1">
  <style id="style1">.c{fill:none;stroke:#000;stroke-width:2px;stroke-linecap:round;stroke-linejoin:round;}</style>
 </defs>
 <path id="path1" d="m7.5 7.5c-2.1973 0-4 1.8027-4 4v25c0 2.1973 1.8027 4 4 4h33c2.1973 0 4-1.8027 4-4v-20c0-2.1973-1.8027-4-4-4h-14.719c-0.62539 0-1.2333-0.19509-1.7422-0.55859l-4.9141-3.5098c-0.84794-0.60562-1.8642-0.93164-2.9062-0.93164zm0 2h8.7188c0.62539 0 1.2331 0.19501 1.7422 0.55859l4.9141 3.5098c0.84792 0.6057 1.8642 0.93164 2.9062 0.93164h14.719c1.1165 0 2 0.88351 2 2v20c0 1.1165-0.88351 2-2 2h-33c-1.1165 0-2-0.88351-2-2v-25c0-1.1165 0.88351-2 2-2z" stroke-linecap="round" stroke-linejoin="round"/>
 <path id="path1-7" d="m24 15.5c-6.0619 0.0028-10.997 4.9381-11 11 1e-3 2.2765 0.86204 4.2742 2.0527 6.0312a1 1 0 0 0 0.5625 0.83398c2.0192 2.463 4.9607 4.1332 8.3848 4.1348 6.0619-0.0027 10.997-4.9381 11-11-0.0027-6.0619-4.9381-10.997-11-11zm0 2c1.1012 5.12e-4 2.1276 0.26515 3.1016 0.625l-1.625 2.6152a1.0001 1.0001 0 0 0 0.87695 1.5273l0.89453-0.02539-2.0664 0.96484a1.0001 1.0001 0 0 0-0.55664 1.1074l0.64648 3.1621a1.0001 1.0001 0 0 0 0.70703 0.76172l2.1289 0.60352 0.4707 5.2305c-1.36 0.82482-2.8666 1.427-4.5781 1.4277-1.5184-7.06e-4 -2.882-0.46868-4.1348-1.1289l4.1699-7.2754a1.0001 1.0001 0 0 0-0.56641-1.4512l-3.0723-0.97461 0.48828-1.666 1.9824-1.1562a1.0001 1.0001 0 0 0 0.37891-0.39258l0.70508-1.3262a1.0001 1.0001 0 0 0-0.14258-1.1465l-1.1152-1.2188c0.44473-0.067379 0.84271-0.26346 1.3066-0.26367zm-3.5723 0.75 1.4277 1.5605-0.24219 0.45312-2.0801 1.2148a1.0001 1.0001 0 0 0-0.45508 0.58203l-0.55859 1.9062-2.6777-1.1738c0.92114-2.0257 2.5403-3.6581 4.5859-4.543zm8.416 0.85742c0.52116 0.34225 1.0993 0.60477 1.5371 1.0449l-2.2246 0.0625zm2.9883 3.1992c0.68103 1.2677 1.1673 2.6495 1.168 4.1934-0.0011 2.4272-0.9808 4.6044-2.5352 6.2207l-0.42774-4.7422a1.0001 1.0001 0 0 0-0.72266-0.87305l-2.2051-0.625-0.36719-1.7949zm-16.482 2.4551 1.5098 0.66211-0.36328 0.19141a1.0001 1.0001 0 0 0-0.52148 0.72656l-0.44531 2.7832c-0.26146-0.84446-0.52888-1.693-0.5293-2.625 2.87e-4 -0.61711 0.23192-1.1566 0.34961-1.7383zm3.9258 1.6504 2.4082 0.76367-3.4824 6.0742c-0.42181-0.36206-0.76694-0.76163-1.1152-1.1953l0.78516-4.9023z" stroke-linecap="round" stroke-linejoin="round"/>
</svg>
