<?xml version="1.0" encoding="UTF-8"?>
<svg id="svg1" version="1.1" viewBox="0 0 48 48" xmlns="http://www.w3.org/2000/svg">
 <defs id="defs1">
  <style id="style1">.a{fill:none;stroke:#000;stroke-width:2px;stroke-linecap:round;stroke-linejoin:round;}</style>
 </defs>
 <path id="path1" d="m18.172 16.943c-1.0262 1e-6 -1.8652 0.86049-1.8652 1.877v15.359c1e-6 1.0165 0.83903 1.877 1.8652 1.877h11.656c1.0262 0 1.8652-0.86049 1.8652-1.877v-11.41a1.0001 1.0001 0 0 0-1-1h-3.75v-3.8262a1.0001 1.0001 0 0 0-1-1zm0.13477 2h6.6367v2.9492c2e-6 1.0165 0.83708 1.877 1.8633 1.877h2.8867v10.287h-11.387z" stroke-linecap="round" stroke-linejoin="round"/>
 <path id="line1" d="m25.242 17.23a1 1 0 0 0-0.01172 1.4141l4.75 4.8262a1 1 0 0 0 1.4141 0.01172 1 1 0 0 0 0.01172-1.4141l-4.75-4.8262a1 1 0 0 0-1.4141-0.01172z" stroke-linecap="round" stroke-linejoin="round"/>
 <path id="path1-5" d="m7.5 7.5c-2.1973 0-4 1.8027-4 4v25c0 2.1973 1.8027 4 4 4h33c2.1973 0 4-1.8027 4-4v-20c0-2.1973-1.8027-4-4-4h-14.719c-0.62539 0-1.2333-0.19509-1.7422-0.55859l-4.9141-3.5098c-0.84794-0.60562-1.8642-0.93164-2.9062-0.93164zm0 2h8.7188c0.62539 0 1.2331 0.19501 1.7422 0.55859l4.9141 3.5098c0.84792 0.6057 1.8642 0.93164 2.9062 0.93164h14.719c1.1165 0 2 0.88351 2 2v20c0 1.1165-0.88351 2-2 2h-33c-1.1165 0-2-0.88351-2-2v-25c0-1.1165 0.88351-2 2-2z" stroke-linecap="round" stroke-linejoin="round"/>
</svg>
