<?xml version='1.0' encoding='UTF-8'?>
<svg xmlns:inkscape="http://www.inkscape.org/namespaces/inkscape" xmlns:sodipodi="http://sodipodi.sourceforge.net/DTD/sodipodi-0.dtd" xmlns="http://www.w3.org/2000/svg" xmlns:svg="http://www.w3.org/2000/svg" viewBox="0 0 48 48" version="1.1" id="svg2" sodipodi:docname="battery-100-charging.svg" inkscape:version="1.4 (e7c3feb100, 2024-10-09)">
  <sodipodi:namedview id="namedview2" pagecolor="#fff" bordercolor="#000" borderopacity="0.25" inkscape:showpageshadow="2" inkscape:pageopacity="0.0" inkscape:pagecheckerboard="0" inkscape:deskcolor="#d1d1d1" inkscape:zoom="11.313709" inkscape:cx="24.041629" inkscape:cy="33.234017" inkscape:window-width="1707" inkscape:window-height="1041" inkscape:window-x="0" inkscape:window-y="0" inkscape:window-maximized="1" inkscape:current-layer="g1"/>
  <defs id="defs1">
    <inkscape:path-effect effect="fillet_chamfer" id="path-effect1" is_visible="true" lpeversion="1" nodesatellites_param="F,0,0,1,0,0,0,1 @ F,0,0,1,0,0,0,1 @ F,0,0,1,0,0,0,1 @ F,0,0,1,0,0,0,1" radius="0" unit="px" method="auto" mode="F" chamfer_steps="1" flexible="false" use_knot_distance="true" apply_no_radius="true" apply_with_radius="true" only_selected="false" hide_knots="false"/>
    <style id="style1">.a{fill:none;stroke:#000;stroke-width:2px;stroke-linecap:round;stroke-linejoin:round;}</style>
  </defs>
  <g id="g1" inkscape:label="Battery">
    <path class="a" d="m 20.665,4.5 h 6.67 c 0.552285,0 1,0.4477153 1,1 v 3 H 32.8 c 1.104569,0 2,0.8954305 2,2 v 31 c 0,1.104569 -0.895431,2 -2,2 H 15.19 c -1.104569,0 -2,-0.895431 -2,-2 v -31 c 0,-1.1045695 0.895431,-2 2,-2 h 4.475 v -3 c 0,-0.5522847 0.447715,-1 1,-1 z" id="path1" sodipodi:nodetypes="ssscsssssssscss" inkscape:label="battery-body"/>
    <line class="a" x1="19.665001" y1="8.5" x2="28.334999" y2="8.5" id="line2" inkscape:label="cap"/>
    <g id="g3" inkscape:label="Fill">
      <path style="fill:#000;fill-opacity:1;stroke:#000;stroke-width:2;stroke-linecap:round;stroke-linejoin:round;stroke-dasharray:none;stroke-opacity:1;paint-order:stroke fill markers" d="m 25.444765,20.684202 h -2.738593 l -1.446899,6.006296 h 2.31881 l -1.199128,4.625729 4.361834,-6.392722 h -2.57303 z" id="path9-9" sodipodi:nodetypes="cccccccc" inkscape:label="charging_indicator"/>
      <path id="path3" style="display:inline;stroke:#000;fill:#000;stroke-width:2;stroke-linecap:round;stroke-linejoin:round" d="M 16 11.25 L 16 40.75 L 32 40.75 L 32 11.25 L 16 11.25 z M 20.248047 16.976562 L 27.751953 16.976562 C 28.912204 16.976562 29.853516 17.917874 29.853516 19.078125 L 29.853516 32.921875 C 29.853516 34.082126 28.912204 35.023438 27.751953 35.023438 L 20.248047 35.023438 C 19.087796 35.023438 18.146484 34.082126 18.146484 32.921875 L 18.146484 19.078125 C 18.146484 17.917874 19.087796 16.976563 20.248047 16.976562 z " inkscape:label="battery-fill"/>
    </g>
  </g>
</svg>