<?xml version="1.0" encoding="UTF-8"?>
<svg id="a" version="1.1" viewBox="0 0 48 48" xmlns="http://www.w3.org/2000/svg">
 <defs id="defs1">
  <style id="style1">.b{fill:none;stroke:#000;stroke-width:2px;stroke-linecap:round;stroke-linejoin:round;}</style>
 </defs>
 <path id="rect1" d="m7.5 4.5c-1.6447 0-3 1.3553-3 3v33c0 1.6447 1.3553 3 3 3h33c1.6447 0 3-1.3553 3-3v-33c0-1.6447-1.3553-3-3-3zm0 2h33c0.5713 0 1 0.4287 1 1v33c0 0.5713-0.4287 1-1 1h-33c-0.5713 0-1-0.4287-1-1v-33c0-0.5713 0.4287-1 1-1z" stroke-linecap="round" stroke-linejoin="round"/>
 <path id="path1" d="m24 10c-7.7184 0.0035-13.996 6.2816-14 14 0 7.7201 6.2799 14 14 14s14-6.2799 14-14-6.2799-14-14-14zm0 2c6.6393 0 12 5.3607 12 12s-5.3607 12-12 12-12-5.3607-12-12c0.0031-6.6382 5.3618-11.997 12-12z" stroke-linecap="round" stroke-linejoin="round"/>
 <path id="path2" d="m24 18.5c-3.0249 0.0015-5.4985 2.4751-5.5 5.5 0 3.0257 2.4743 5.5 5.5 5.5s5.5-2.4743 5.5-5.5-2.4743-5.5-5.5-5.5zm0 2c1.9449 0 3.5 1.5551 3.5 3.5s-1.5551 3.5-3.5 3.5-3.5-1.5551-3.5-3.5c9.39e-4 -1.9447 1.5553-3.4991 3.5-3.5z" stroke-linecap="round" stroke-linejoin="round"/>
</svg>
