<?xml version="1.0" encoding="UTF-8"?>
<svg id="svg1" version="1.1" viewBox="0 0 48 48" xml:space="preserve" xmlns="http://www.w3.org/2000/svg"><defs id="defs1"><style id="style1">.a{fill:none;stroke:#000;stroke-width:2px;stroke-linecap:round;stroke-linejoin:round;}</style></defs><path id="path2" d="m24 1.207c-12.576 0-22.793 10.217-22.793 22.793 1e-7 12.576 10.217 22.793 22.793 22.793s22.793-10.217 22.793-22.793-10.217-22.793-22.793-22.793zm0 2c11.495 0 20.793 9.2979 20.793 20.793s-9.2979 20.793-20.793 20.793-20.793-9.2979-20.793-20.793 9.2979-20.793 20.793-20.793z" stroke-linecap="round" stroke-linejoin="round" style="paint-order:stroke fill markers"/><g id="g4" transform="matrix(1.0912 0 0 1.0912 .22896 -2.6127)" stroke-width=".91639"><path id="path6" transform="matrix(.91639 0 0 .91639 .31197 2.3942)" d="m24.469 9.041a1 1 0 0 0-0.7168 0.26953 1 1 0 0 0-0.04492 1.4141l2.0801 2.2188-0.14844 1.125-1.4023 0.13477-2.5703-1.9414a1 1 0 0 0-1.4004 0.19531 1 1 0 0 0 0.19531 1.4004l2.8809 2.1777a1.0001 1.0001 0 0 0 0.69922 0.19727l2.582-0.25a1.0001 1.0001 0 0 0 0.89453-0.86523l0.31445-2.3828a1.0001 1.0001 0 0 0-0.26172-0.81445l-2.4043-2.5625a1 1 0 0 0-0.69727-0.31641z" style="paint-order:stroke fill markers"/><path id="path4" d="m27.289 9.8086-4.752 0.88672a0.91648 0.91648 0 0 0-0.44336 0.2168l-2.8262 2.5312-3.7227-0.02539a0.91648 0.91648 0 0 0-0.53906 1.6602l8.8086 6.3066a0.91648 0.91648 0 0 0 0.12109 0.07227l7.457 3.7598a0.91648 0.91648 0 0 0 1.2871-0.54688l2.0137-6.5234a0.91648 0.91648 0 0 0-0.01758-0.59375l-1.6113-4.2676a0.91648 0.91648 0 0 0-0.37891-0.45898l-4.752-2.8984a0.91648 0.91648 0 0 0-0.64453-0.11914zm-0.0098 1.8672 4.1816 2.5508 1.3887 3.6797-1.5996 5.1855-6.4258-3.2383-6.4004-4.582 1.1836 0.0078a0.91648 0.91648 0 0 0 0.61914-0.23438l2.8985-2.5957z" style="paint-order:stroke fill markers"/></g><g id="g1"><path id="path5" d="m24.5 26.391a1 1 0 0 0-0.73242 0.22461l-1.7773 1.4629-4.4551-0.57617a1 1 0 0 0-1.1191 0.86328 1 1 0 0 0 0.86328 1.1211l4.8828 0.63086a1.0001 1.0001 0 0 0 0.76562-0.21875l2.1113-1.7402a1 1 0 0 0 0.13672-1.4082 1 1 0 0 0-0.67578-0.35938z" style="paint-order:stroke fill markers"/><path id="path3" transform="matrix(1.0912 0 0 1.0912 -.34043 -2.6127)" d="m16.4 16.719-5.8789 0.16211a0.91648 0.91648 0 0 0-0.08203 0.0059l-3.1484 0.36719a0.91648 0.91648 0 0 0-0.74219 1.2539l1.2148 3.0137a0.91648 0.91648 0 0 0 0.2168 0.31836l7.4297 7.1191 0.48828 2.8613-3.7207 2.1758a0.91648 0.91648 0 0 0-0.0059 1.5781l5.3594 3.1934a0.91648 0.91648 0 0 0 0.20117 0.08984l5.1094 1.5566a0.91648 0.91648 0 0 0 0.41016 0.0293l5.8633-0.93555a0.91648 0.91648 0 0 0 0.2832-0.09375l5.25-2.7695a0.91648 0.91648 0 0 0 0.3457-1.3027l-2.0156-3.1797-1.5742-6.0605a0.91648 0.91648 0 0 0-0.46094-0.58008l-7.2715-3.8359-6.7148-4.7969a0.91648 0.91648 0 0 0-0.55664-0.16992zm-0.25781 1.8398 6.5137 4.6543a0.91648 0.91648 0 0 0 0.10547 0.06445l6.9688 3.6758 1.5098 5.8086a0.91648 0.91648 0 0 0 0.11328 0.26172l1.5625 2.4629-4.2383 2.2363-5.5039 0.87695-4.8008-1.4629-3.9297-2.3418 2.9277-1.7129a0.91648 0.91648 0 0 0 0.43945-0.94531l-0.64258-3.7852a0.91648 0.91648 0 0 0-0.26953-0.50781l-7.5078-7.1914-0.69336-1.7168 1.916-0.22461z" style="paint-order:stroke fill markers"/></g></svg>
