<?xml version="1.0" encoding="UTF-8"?>
<svg id="a" version="1.1" viewBox="0 0 48 48" xmlns="http://www.w3.org/2000/svg">
 <defs id="defs1">
  <style id="style1">.b{fill:none;stroke:#000;stroke-width:2px;stroke-linecap:round;stroke-linejoin:round;}</style>
 </defs>
 <path id="path1" d="m10.5 3.5293c-1.645 0-3 1.355-3 3v35c0 1.645 1.355 3 3 3h27c1.645 0 3-1.355 3-3v-20a1.0001 1.0001 0 0 0 0-0.0039c-0.0033-0.79318-0.32097-1.5537-0.88281-2.1133l-14.998-14.998c-0.55972-0.56302-1.3212-0.88147-2.1152-0.88477a1.0001 1.0001 0 0 0-0.0039 0zm0 2h11.996c0.26514 0.0011 0.518 0.10674 0.70508 0.29492a1.0001 1.0001 0 0 0 2e-3 0.00195l15 15a1.0001 1.0001 0 0 0 2e-3 0.0039c0.18818 0.18708 0.29382 0.43799 0.29492 0.70312v19.996c0 0.56419-0.43581 1-1 1h-27c-0.56419 0-1-0.43581-1-1v-35c0-0.56419 0.43581-1 1-1z" stroke-linecap="round" stroke-linejoin="round"/>
 <path id="path2" d="m30.295 3.5c-0.87152 0.012364-1.5885 0.75115-1.5762 1.623 0.0059 0.41054 0.169 0.80402 0.45703 1.0977a1.0001 1.0001 0 0 0 0.0078 0.00586l8.5898 8.5898a1.0001 1.0001 0 0 0 0.03906 0.03906c0.64899 0.58191 1.6777 0.52584 2.2598-0.12305 0.24704-0.27532 0.38997-0.62832 0.40625-0.99805a1.0001 1.0001 0 0 0 2e-3 -0.04492v-7.1895c0-1.645-1.355-3-3-3h-7.1699a1.0001 1.0001 0 0 0-0.01563 0zm0.99023 2h6.1953c0.56419 0 1 0.43581 1 1v6.1953z" stroke-linecap="round" stroke-linejoin="round"/>
 <path id="path3" d="m24.105 19.217a1.0001 1.0001 0 0 0-0.86524 0.5l-3.5391 6.127-1.4688-2.543a1.0001 1.0001 0 0 0-0.86524-0.5h-4.4805a1 1 0 0 0-1 1 1 1 0 0 0 1 1h3.9023l2.0469 3.543a1.0001 1.0001 0 0 0 1.7324 0l4.1152-7.127h10.43a1 1 0 0 0 1-1 1 1 0 0 0-1-1z" stroke-linecap="round" stroke-linejoin="round" style="paint-order:stroke fill markers"/>
 <path id="path4" d="m12.586 30.357a1 1 0 0 0-1 1 1 1 0 0 0 1 1h22.828a1 1 0 0 0 1-1 1 1 0 0 0-1-1z" stroke-linecap="round" stroke-linejoin="round" style="paint-order:stroke fill markers"/>
 <path id="path5" d="m21.803 34.492a1 1 0 0 0-1 1 1 1 0 0 0 1 1h4.3945a1 1 0 0 0 1-1 1 1 0 0 0-1-1z" stroke-linecap="round" stroke-linejoin="round" style="paint-order:stroke fill markers"/>
 <path id="path7" d="m31.658 21.787a1 1 0 0 0-0.78516 0.80664c-0.08001-0.05101-0.13823-0.17644-0.2207-0.2207-0.70834-0.38013-1.4561-0.47656-2.1621-0.47656-2.0971 0-3.8184 1.7198-3.8184 3.8164 0 2.0967 1.7266 3.781 3.8027 3.8164 0.83309 0.01423 1.5696-0.30476 2.2539-0.75586a1 1 0 0 0 0.94336 0.86328 1 1 0 0 0 1-1v-1.9414l0.02734-1.8691a1.0001 1.0001 0 0 0 0-0.0293v-0.02934a1 1 0 0 0 0-2e-3l-0.02734-1.9922a1 1 0 0 0-1.0137-0.98633zm-3.168 2.1094c0.53564 0 0.88522 0.06034 1.2168 0.23828 0.28445 0.15265 0.62002 0.52393 0.98633 1.041l-0.01367 0.98438c-0.86391 0.75003-1.908 1.3736-2.1719 1.3691-1.0381-0.01773-1.8359-0.80215-1.8359-1.8164 0-1.0144 0.80077-1.8164 1.8184-1.8164z" stroke-linecap="round" stroke-linejoin="round" style="paint-order:stroke fill markers"/>
</svg>
