<?xml version="1.0" encoding="UTF-8"?>
<svg id="svg6" version="1.1" viewBox="0 0 48 48" xmlns="http://www.w3.org/2000/svg">
 <defs id="defs1">
  <style id="style1">.a{fill:none;stroke:#fff;stroke-width:2px;stroke-linecap:round;stroke-linejoin:round;}</style>
 </defs>
 <path id="path1" d="m10.4 3.5c-1.645 0-3 1.355-3 3v35c0 1.645 1.355 3 3 3h2.3301a1.0001 1.0001 0 0 0 1-1v-39a1.0001 1.0001 0 0 0-1-1zm0 2h1.3301v37h-1.3301c-0.56413 0-1-0.43587-1-1v-35c0-0.56413 0.43587-1 1-1z" fill="#fff" stroke-linecap="round" stroke-linejoin="round"/>
 <path id="path2" d="m12.73 3.5a1.0001 1.0001 0 0 0-1 1v39a1.0001 1.0001 0 0 0 1 1h24.871c1.645 0 3-1.355 3-3v-14.531a1 1 0 0 0-1-1 1 1 0 0 0-1 1v14.531c0 0.56413-0.43587 1-1 1h-23.871v-37h23.871c0.56413 0 1 0.43587 1 1v8.9258a1 1 0 0 0 1 1 1 1 0 0 0 1-1v-8.9258c0-1.645-1.355-3-3-3z" fill="#fff" stroke-linecap="round" stroke-linejoin="round"/>
 <g id="g6" transform="matrix(1.2379 0 0 1.2311 -1.5502 -9.3417)" fill="#fff" stroke-linecap="round" stroke-linejoin="round" stroke-width=".81004">
  <path id="path6" d="m35.391 17.814c-0.82891 0.08814-1.6611 0.55638-2.248 1.3848l-11.199 15.799a0.81012 0.81012 0 0 0-0.14062 0.34766l-0.79297 5.3223a0.81012 0.81012 0 0 0 1.1758 0.83789l4.7285-2.4668a0.81012 0.81012 0 0 0 0.28516-0.25l11.201-15.797c0.58696-0.82838 0.75416-1.7686 0.57226-2.584-0.1819-0.81536-0.67627-1.496-1.3145-1.959-0.63818-0.46303-1.4387-0.7229-2.2676-0.63477zm0.17188 1.6113c0.37931-0.04033 0.79889 0.08321 1.1445 0.33398 0.34564 0.25078 0.59993 0.6162 0.68555 1 0.08562 0.3838 0.03929 0.79567-0.31445 1.2949l-11.086 15.639-3.1465 1.6406 0.53125-3.5566 11.088-15.641c0.35375-0.49925 0.71834-0.67061 1.0977-0.71094z"/>
  <path id="path8" d="m32.998 21.193c-0.82886 0.08785-1.6609 0.55481-2.248 1.3828a0.81003 0.81003 0 0 0 0.19141 1.1289 0.81003 0.81003 0 0 0 1.1289-0.19141c0.35372-0.49883 0.71823-0.67072 1.0977-0.71094 0.37943-0.04021 0.79884 0.08317 1.1445 0.33398 0.34569 0.25081 0.59998 0.61646 0.68555 1 0.08557 0.38354 0.04121 0.79609-0.3125 1.2949a0.81003 0.81003 0 0 0 0.19141 1.1289 0.81003 0.81003 0 0 0 1.1289-0.19141c0.58712-0.828 0.7561-1.7688 0.57422-2.584-0.18188-0.81523-0.67632-1.496-1.3145-1.959-0.63813-0.46299-1.4387-0.72066-2.2676-0.63281z"/>
  <path id="path9" d="m24.191 33.615c-0.82884 0.08765-1.6608 0.55313-2.248 1.3809a0.81003 0.81003 0 0 0 0.19141 1.1309 0.81003 0.81003 0 0 0 1.1289-0.19336c0.35369-0.49853 0.72008-0.66885 1.0996-0.70898 0.37952-0.04013 0.79879 0.0851 1.1445 0.33594 0.34575 0.25084 0.59806 0.6147 0.68359 0.99805 0.08554 0.38335 0.04119 0.79444-0.3125 1.293a0.81003 0.81003 0 0 0 0.19141 1.1309 0.81003 0.81003 0 0 0 1.1289-0.19336c0.58725-0.82773 0.7561-1.7669 0.57422-2.582-0.18188-0.81514-0.67634-1.496-1.3145-1.959-0.63811-0.46296-1.4387-0.72046-2.2676-0.63281z"/>
 </g>
 <path id="path7" d="m26.863 4.1777a1 1 0 0 0-1 1v10.721a1.0001 1.0001 0 0 0 1.7363 0.67578l2.6699-2.9121 2.6719 2.9121a1.0001 1.0001 0 0 0 1.7363-0.67578v-10.721a1 1 0 0 0-1-1 1 1 0 0 0-1 1v8.1504l-1.6699-1.8203a1.0001 1.0001 0 0 0-1.4746 0l-1.6699 1.8203v-8.1504a1 1 0 0 0-1-1z" fill="#fff" stroke-linecap="round" stroke-linejoin="round" style="paint-order:stroke fill markers"/>
</svg>
