<?xml version='1.0' encoding='UTF-8'?>
<svg xmlns:inkscape="http://www.inkscape.org/namespaces/inkscape" xmlns:sodipodi="http://sodipodi.sourceforge.net/DTD/sodipodi-0.dtd" xmlns="http://www.w3.org/2000/svg" xmlns:svg="http://www.w3.org/2000/svg" id="a" viewBox="0 0 48 48" version="1.1" sodipodi:docname="folder-network.svg" inkscape:version="1.4 (e7c3feb100, 2024-10-09)">
  <sodipodi:namedview id="namedview1" pagecolor="#ffffff" bordercolor="#000000" borderopacity="0.25" inkscape:showpageshadow="2" inkscape:pageopacity="0.0" inkscape:pagecheckerboard="0" inkscape:deskcolor="#d1d1d1" inkscape:zoom="8.6458333" inkscape:cx="31.113253" inkscape:cy="32.501205" inkscape:window-width="1707" inkscape:window-height="1041" inkscape:window-x="0" inkscape:window-y="0" inkscape:window-maximized="1" inkscape:current-layer="a"/>
  <defs id="defs1">
    <style id="style1">.c{fill:none;stroke:#000;stroke-width:2px;stroke-linecap:round;stroke-linejoin:round;}</style>
  </defs>
  <path class="c" d="m4.5,11.5c0-1.6569,1.3431-3,3-3h8.7181c.8337,0,1.6465.2605,2.325.7451l4.9138,3.5099c.6784.4846,1.4913.7451,2.325.7451h14.7181c1.6569,0,3,1.3431,3,3v20c0,1.6569-1.3431,3-3,3H7.5c-1.6569,0-3-1.3431-3-3V11.5Z" id="path1" style="stroke:#000000;stroke-opacity:1;fill:none;fill-opacity:1;stroke-width:2;stroke-dasharray:none"/>
  <path class="cls-1" d="M 24.000001,16.5 C 18.478215,16.502527 14.002567,20.978216 14,26.500001 v 0 c 0.0025,5.521785 4.478215,9.997435 10,10.000002 v 0 c 5.521785,-0.0025 9.997434,-4.478217 10,-10.000002 v 0 C 33.9975,20.978216 29.521785,16.502567 24.000001,16.5 Z m -8.001774,16.014665 0.964566,-6.014664 2.200001,-1.158139 -4.204923,-1.843168 m 6.963061,-5.110322 -0.890103,-0.959813 2.038957,2.229587 -0.706978,1.325582 -2.325582,1.35814 -0.874418,2.986046 4.004651,1.269767 -4.496232,7.845547 m 10.945518,0.0041 -0.574884,-6.379939 -2.790698,-0.790698 -0.646512,-3.16279 6.43691,-3.007332 -5.715979,0.16082 1.92726,-3.10289" id="path1-7" style="fill:none;fill-opacity:1;stroke:#000000;stroke-width:2px;stroke-linecap:round;stroke-linejoin:round;stroke-opacity:1" sodipodi:nodetypes="csssssscccccccccccccccccccc"/>
</svg>