<?xml version='1.0' encoding='UTF-8'?>
<svg xmlns:inkscape="http://www.inkscape.org/namespaces/inkscape" xmlns:sodipodi="http://sodipodi.sourceforge.net/DTD/sodipodi-0.dtd" xmlns="http://www.w3.org/2000/svg" xmlns:svg="http://www.w3.org/2000/svg" viewBox="0 0 48 48" version="1.1" id="svg6" sodipodi:docname="calibre-ebook-edit.svg" inkscape:version="1.4 (e7c3feb100, 2024-10-09)">
  <sodipodi:namedview id="namedview6" pagecolor="#fff" bordercolor="#000" borderopacity="0.25" inkscape:showpageshadow="2" inkscape:pageopacity="0.0" inkscape:pagecheckerboard="0" inkscape:deskcolor="#d1d1d1" inkscape:zoom="5.8041682" inkscape:cx="9.4759487" inkscape:cy="32.390516" inkscape:window-width="1707" inkscape:window-height="1041" inkscape:window-x="0" inkscape:window-y="0" inkscape:window-maximized="1" inkscape:current-layer="svg6" showguides="false"/>
  <defs id="defs1">
    <style id="style1">.a{fill:none;stroke:#000;stroke-width:2px;stroke-linecap:round;stroke-linejoin:round;}</style>
  </defs>
  <path class="a" d="M8.4,6.5v35a2,2,0,0,0,2,2h2.33V4.5H10.4A2,2,0,0,0,8.4,6.5Z" id="path1"/>
  <path class="a" d="M 39.6011,15.426255 V 6.5 c 0,-1.1045695 -0.895431,-2 -2,-2 h -24.87 v 39 h 24.87 c 1.104569,0 2,-0.895431 2,-2 V 26.967981" id="path2" sodipodi:nodetypes="cssccssc"/>
  <g id="g6" inkscape:label="pencil" transform="matrix(1.2379391,0,0,1.2310937,-1.5502223,-9.341681)" style="stroke-width:0.810037">
    <path class="a" d="m 21.810144,40.787935 0.793611,-5.322162 11.200213,-15.79747 a 2.4214042,2.4495167 0 1 1 3.935308,2.855204 l -11.200152,15.79747 z" id="path6" style="display:inline;fill:none;stroke:#000;stroke-width:1.62007px;stroke-linecap:round;stroke-linejoin:round"/>
    <path class="a" d="m 31.410118,23.0447 a 2.4214044,2.4495169 0 0 1 3.935308,2.855205" id="path8" style="display:inline;fill:none;stroke:#000;stroke-width:1.62007px;stroke-linecap:round;stroke-linejoin:round"/>
    <path class="a" d="m 22.603695,35.465773 a 2.4214534,2.4495665 0 0 1 3.935429,2.855204 v 0" id="path9" style="display:inline;fill:none;stroke:#000;stroke-width:1.62007px;stroke-linecap:round;stroke-linejoin:round"/>
  </g>
  <path style="fill:none;stroke:#000;stroke-width:2;stroke-linecap:round;stroke-linejoin:round;stroke-dasharray:none;paint-order:stroke fill markers" d="M 26.862944,5.1776649 V 15.898478 l 3.407595,-3.715736 3.407595,3.715736 V 5.1776649" id="path7" sodipodi:nodetypes="ccccc"/>
</svg>