<?xml version='1.0' encoding='UTF-8'?>
<svg xmlns:inkscape="http://www.inkscape.org/namespaces/inkscape" xmlns:sodipodi="http://sodipodi.sourceforge.net/DTD/sodipodi-0.dtd" xmlns="http://www.w3.org/2000/svg" xmlns:svg="http://www.w3.org/2000/svg" id="a" viewBox="0 0 48 48" version="1.1" sodipodi:docname="kicad.svg" inkscape:version="1.4 (e7c3feb100, 2024-10-09)" xml:space="preserve"><sodipodi:namedview id="namedview2" pagecolor="#ffffff" bordercolor="#000000" borderopacity="0.25" inkscape:showpageshadow="2" inkscape:pageopacity="0.0" inkscape:pagecheckerboard="0" inkscape:deskcolor="#d1d1d1" inkscape:zoom="11.313709" inkscape:cx="20.771261" inkscape:cy="21.036426" inkscape:window-width="1707" inkscape:window-height="1041" inkscape:window-x="0" inkscape:window-y="0" inkscape:window-maximized="1" inkscape:current-layer="a"/><defs id="defs1"><inkscape:path-effect effect="fillet_chamfer" id="path-effect8" is_visible="true" lpeversion="1" nodesatellites_param="F,0,1,1,0,1,0,1 @ F,0,0,1,0,1,0,1 @ F,0,0,1,0,0.25656054,0,1 @ F,0,1,1,0,1,0,1 @ F,0,1,1,0,1,0,1 @ F,0,0,1,0,1,0,1 @ F,0,0,1,0,1,0,1 @ F,0,1,1,0,1,0,1 @ F,0,0,1,0,1,0,1 @ F,0,0,1,0,1,0,1 @ F,0,1,1,0,1,0,1 @ F,0,1,1,0,1,0,1 @ F,0,0,1,0,1,0,1 @ F,0,0,1,0,1,0,1 @ F,0,1,1,0,1,0,1 @ F,0,0,1,0,1,0,1 @ F,0,1,1,0,1,0,1 @ F,0,1,1,0,1,0,1 @ F,0,0,1,0,1,0,1 @ F,0,0,1,0,1,0,1 @ F,0,0,1,0,1,0,1 @ F,0,0,1,0,1,0,1 @ F,0,1,1,0,1,0,1 @ F,0,1,1,0,1,0,1 @ F,0,0,1,0,1,0,1" radius="1" unit="px" method="auto" mode="F" chamfer_steps="1" flexible="false" use_knot_distance="true" apply_no_radius="true" apply_with_radius="true" only_selected="true" hide_knots="false"/><inkscape:path-effect effect="fillet_chamfer" id="path-effect7" is_visible="true" lpeversion="1" nodesatellites_param="F,0,0,1,0,1.2438144,0,1 @ F,0,0,1,0,1.2438144,0,1 @ F,0,0,1,0,1.2438144,0,1 @ F,0,0,1,0,1.2438144,0,1 @ F,0,0,1,0,1.2438144,0,1 @ F,0,0,1,0,1.2438144,0,1 @ F,0,0,1,0,1.2438144,0,1 @ F,0,0,1,0,1.2438144,0,1 @ F,0,0,1,0,1.2438144,0,1 @ F,0,0,1,0,1.2438144,0,1" radius="1" unit="px" method="auto" mode="F" chamfer_steps="1" flexible="false" use_knot_distance="true" apply_no_radius="true" apply_with_radius="true" only_selected="false" hide_knots="false"/><inkscape:path-effect effect="fillet_chamfer" id="path-effect6" is_visible="true" lpeversion="1" nodesatellites_param="F,0,0,1,0,6.4192171,0,1 @ F,0,1,1,0,6.4192171,0,1 @ F,0,1,1,0,6.4192171,0,1 @ F,0,1,1,0,6.4192171,0,1" radius="0" unit="px" method="auto" mode="F" chamfer_steps="1" flexible="false" use_knot_distance="true" apply_no_radius="true" apply_with_radius="true" only_selected="false" hide_knots="false"/><inkscape:path-effect effect="fillet_chamfer" id="path-effect5" is_visible="true" lpeversion="1" nodesatellites_param="F,0,0,1,0,0,0,1 @ F,0,0,1,0,0,0,1 @ F,0,0,1,0,0,0,1 @ F,0,0,1,0,0,0,1" radius="0" unit="px" method="auto" mode="F" chamfer_steps="1" flexible="false" use_knot_distance="true" apply_no_radius="true" apply_with_radius="true" only_selected="false" hide_knots="false"/><inkscape:path-effect effect="fillet_chamfer" id="path-effect4" is_visible="true" lpeversion="1" nodesatellites_param="F,0,0,1,0,0,0,1 @ F,0,0,1,0,0,0,1 @ F,0,0,1,0,0,0,1 @ F,0,0,1,0,0,0,1 @ F,0,0,1,0,0,0,1 @ F,0,0,1,0,0,0,1 @ F,0,0,1,0,0,0,1 @ F,0,0,1,0,0,0,1" radius="0" unit="px" method="auto" mode="F" chamfer_steps="1" flexible="false" use_knot_distance="true" apply_no_radius="true" apply_with_radius="true" only_selected="false" hide_knots="false"/><style id="style1">.b{fill:none;stroke:#000;stroke-width:2px;stroke-linecap:round;stroke-linejoin:round;}</style></defs><path class="b" d="m 38.5,5.5 h -29 c -2.2091,0 -4,1.7909 -4,4 v 29 c 0,2.2091 1.7909,4 4,4 h 29 c 2.2091,0 4,-1.7909 4,-4 v -29 c 0,-2.2091 -1.7909,-4 -4,-4 z" id="path2" inkscape:path-effect="#path-effect4" inkscape:original-d="m 38.5,5.5 h -29 c -2.2091,0 -4,1.7909 -4,4 v 29 c 0,2.2091 1.7909,4 4,4 h 29 c 2.2091,0 4,-1.7909 4,-4 v -29 c 0,-2.2091 -1.7909,-4 -4,-4 z" style="display:inline;stroke-width:1.82716048;stroke-dasharray:none;stroke:#000000;stroke-opacity:1" transform="matrix(1.0945946,0,0,1.0945946,-2.2702704,-2.2702704)"/><path class="cls-11" d="m 53.68579,20.653854 3.856717,-4.885328 c 0.342213,-0.433484 0.90217,-1.132958 1.217936,-1.585963 0.541989,-0.777549 0.855449,-1.409353 0.940381,-1.895412 0.02439,-0.139578 0.03018,-0.371145 0.01145,-0.511424 -0.02356,-0.176446 0.371176,-0.313094 0.923461,-0.313094 h 6.895594 c 0.552285,0 0.622927,0.243809 0.195003,0.592596 -0.390537,0.318313 -0.756871,0.665313 -1.095955,1.038111 -0.371462,0.408396 -0.923033,1.114782 -1.2719,1.542922 -0.05546,0.06807 -0.112996,0.138827 -0.172593,0.212276 -0.347984,0.428863 -0.908281,1.127339 -1.254072,1.557975 l -5.427828,6.759625 a 1.3097715,1.3097715 91.402246 0 0 -0.0389,1.58917 l 6.798188,9.370931 c 0.324307,0.447038 0.851804,1.170928 1.200241,1.599339 0.172178,0.211697 0.365212,0.443197 0.579101,0.6945 0.357941,0.420552 0.966773,1.079353 1.398794,1.422908 0.0688,0.05471 -0.322226,0.0979 -0.874511,0.0979 h -7.126341 c -0.552285,0 -0.901261,-0.322284 -0.893804,-0.729185 -0.364062,-1.27576 -0.548149,-1.620844 -0.786355,-2.000924 -0.293274,-0.467944 -0.827429,-1.187662 -1.153764,-1.633222 l -3.949598,-5.392543 a 0.32704094,0.32704094 161.89014 0 0 -0.590883,0.193243 v 5.094993 c 0,0.552285 -0.0084,1.449181 0.04635,1.998515 0.06456,0.647474 0.196556,1.194846 0.395993,1.642116 0.223657,0.501587 0.104384,0.827053 -0.447901,0.827053 h -6.345298 c -0.552285,0 -0.659361,-0.310347 -0.402386,-0.796627 0.216229,-0.409178 0.359221,-1.229583 0.387395,-1.780953 0.02458,-0.481075 0.0094,-1.319848 0.0094,-1.872133 V 15.91253 c 0,-0.552285 0.01795,-1.448506 -0.01671,-1.999506 -0.03024,-0.480751 -0.177167,-1.319973 -0.458239,-1.79274 -0.2365,-0.397792 -0.07177,-0.657467 0.480511,-0.657467 H 53.0606 c 0.552285,0 0.671387,0.325272 0.447211,0.826662 -0.198339,0.443606 -0.329875,0.985144 -0.394608,1.624612 -0.0556,0.549228 -0.04704,1.446154 -0.04704,1.998439 v 4.526216 a 0.3471539,0.3471539 19.144644 0 0 0.619632,0.215108 z" id="path5475" style="fill:none;stroke:#000000;stroke-width:1.95472;stroke-dasharray:none;stroke-opacity:1" inkscape:path-effect="#path-effect8" inkscape:original-d="m 53.066158,21.438746 5.095981,-6.455112 q 1.562038,-1.97397 1.562359,-2.951947 a 1.5043519,1.5066295 0 0 0 -0.08876,-0.569054 h 8.895594 a 10.143591,10.158948 0 0 0 -2.536333,2.402381 q -0.4793,0.569375 -1.437074,1.761764 l -6.680048,8.319095 7.972606,10.989801 q 0.567597,0.78273 1.846297,2.240685 a 8.5640668,8.5770335 0 0 0 0.870119,0.76453 h -9.126341 a 2.9163683,2.9207839 0 0 0 0.106196,-0.729185 q 0,-0.97747 -1.349236,-2.827389 l -5.131364,-7.006057 v 7.094993 q 0,2.471874 0.994442,3.467684 h -8.345298 a 3.1701072,3.1749069 0 0 0 0.888017,-1.582651 10.807653,10.824016 0 0 0 0.106424,-1.867062 V 14.91253 a 10.812656,10.829026 0 0 0 -0.10642,-1.867062 3.1711628,3.175964 0 0 0 -0.888017,-1.582651 H 54.0606 q -0.994442,0.995948 -0.994442,3.449713 z" transform="matrix(1.0216418,0,0,1.0246922,-39.63127,-1.3117254)"/><path id="path8" style="fill:none;stroke:#000000;stroke-width:2;stroke-linecap:round;stroke-linejoin:round;stroke-dasharray:none;paint-order:stroke fill markers" d="m 40.292017,13.607227 c 0,1.753171 -1.419836,3.174401 -3.171291,3.174401 -1.751456,0 -3.171291,-1.42123 -3.171291,-3.174402 0,-1.753176 1.419835,-3.174403 3.171291,-3.174403 1.751455,0 3.171291,1.421228 3.171291,3.174404 z m -0.498774,6.157055 v 14.938446 c -0.01472,0.510791 0.0057,1.022037 0.06129,1.52967 0.08838,0.501672 0.645648,1.334775 0.645648,1.334775 h -6.763852 c 0,0 0.557042,-0.833187 0.645648,-1.334775 0.05453,-0.507716 0.07503,-1.018887 0.06129,-1.52967 V 22.595702 c 0.01426,-0.505316 -0.0062,-1.01106 -0.06129,-1.513226 -0.08962,-0.49313 -0.630389,-1.318195 -0.630389,-1.318195 z" sodipodi:nodetypes="sssssccccccccccc"/></svg>