<?xml version="1.0" encoding="UTF-8"?>
<svg id="svg4" version="1.1" viewBox="0 0 48 48" xmlns="http://www.w3.org/2000/svg">
 <defs id="defs1">
  <style id="style1">.a{fill:none;stroke:#000;stroke-width:2px;stroke-linecap:round;stroke-linejoin:round;}</style>
 </defs>
 <g id="g1" transform="translate(0 -.0021047)" stroke-linecap="round" stroke-linejoin="round">
  <path id="path1" d="m24.047 25.172-0.22461 2e-3a1.0001 1.0001 0 0 0-0.02148 0l-0.22266 0.0078a1.0001 1.0001 0 0 0-0.02148 0l-0.22266 0.01172a1.0001 1.0001 0 0 0-0.02148 0l-0.22266 0.01758a1.0001 1.0001 0 0 0-0.02148 0l-0.2168 0.02148a1 1 0 0 0-0.9043 1.0879 1 1 0 0 0 1.0879 0.90234l0.20703-0.01758 0.20312-0.01563 0.20117-0.0098 0.20312-0.0059 0.20117-2e-3 0.20312 0.0039 0.20312 0.0059 0.20117 0.01172 0.20508 0.01563a1 1 0 0 0 1.0742-0.91987 1 1 0 0 0-0.91992-1.0742l-0.2168-0.01758a1.0001 1.0001 0 0 0-0.02148 0l-0.22266-0.01367a1.0001 1.0001 0 0 0-0.02148 0l-0.22266-0.0078a1.0001 1.0001 0 0 0-0.02148 0l-0.22266-0.0039a1.0001 1.0001 0 0 0-0.02148 0zm4.4023 1.1797a1 1 0 0 0-0.58008 0.5 1 1 0 0 0 0.44726 1.3418l0.05469 0.02734 0.18359 0.09766 0.18164 0.10156 0.17969 0.10547 0.17969 0.10938 0.17578 0.11328 0.17578 0.11914 0.17188 0.12305 0.16992 0.12695 0.04883 0.03711a1 1 0 0 0 1.4043-0.17383 1 1 0 0 0-0.17383-1.4043l-0.05664-0.04297a1.0001 1.0001 0 0 0-0.01953-0.01367l-0.1875-0.14062a1.0001 1.0001 0 0 0-0.01758-0.01367l-0.19141-0.13476a1.0001 1.0001 0 0 0-0.01758-0.01367l-0.19336-0.13086a1.0001 1.0001 0 0 0-0.01758-0.01172l-0.19531-0.125a1.0001 1.0001 0 0 0-0.01953-0.01172l-0.19727-0.12305a1.0001 1.0001 0 0 0-0.01758-0.0098l-0.19922-0.11716a1.0001 1.0001 0 0 0-0.01953-0.01172l-0.20117-0.11133a1.0001 1.0001 0 0 0-0.01953-0.0098l-0.20312-0.10742a1.0001 1.0001 0 0 0-0.01953-0.0098l-0.06445-0.0332a1 1 0 0 0-0.76172-0.05273zm-9.7734 0.13867-0.06641 0.03516a1.0001 1.0001 0 0 0-0.01953 0.0098l-0.20312 0.11133a1.0001 1.0001 0 0 0-0.01758 0.0098l-0.20117 0.11523a1.0001 1.0001 0 0 0-0.01953 0.01172l-0.19726 0.12109a1.0001 1.0001 0 0 0-0.01758 0.01172l-0.19727 0.125a1.0001 1.0001 0 0 0-0.01758 0.01172l-0.19336 0.12891a1.0001 1.0001 0 0 0-0.01953 0.01367l-0.19141 0.13477a1.0001 1.0001 0 0 0-0.01758 0.01172l-0.18945 0.13867a1.0001 1.0001 0 0 0-0.01758 0.01367l-0.18555 0.14453a1.0001 1.0001 0 0 0-0.01758 0.01367l-0.04883 0.03906a1 1 0 0 0-0.15039 1.4062 1 1 0 0 0 1.4062 0.15039l0.03906-0.0332 0.16992-0.12891 0.17188-0.12695 0.17188-0.12109 0.17578-0.11719 0.17775-0.11335 0.17969-0.10938 0.17969-0.10352 0.18359-0.10156 0.05664-0.0293a1 1 0 0 0 0.42383-1.3496 1 1 0 0 0-1.3477-0.42383z" stroke-dasharray="2, 4" stroke-dashoffset="5.6"/>
  <path id="path2" d="m24.002 31.922-0.17383 2e-3a1.0001 1.0001 0 0 0-0.03906 2e-3l-0.17188 0.0098a1.0001 1.0001 0 0 0-0.03711 0.0039l-0.16992 0.01563a1.0001 1.0001 0 0 0-0.03906 0.0039l-0.16602 0.02344a1.0001 1.0001 0 0 0-0.03711 0.0059l-0.16406 0.02734a1.0001 1.0001 0 0 0-0.03711 0.0078l-0.14648 0.03125a1 1 0 0 0-0.76953 1.1875 1 1 0 0 0 1.1895 0.76758l0.12695-0.02734 0.125-0.02148 0.12695-0.01758 0.13086-0.01172 0.13477-0.0078 0.1543-2e-3a1 1 0 0 0 0.98242-1.0195 1 1 0 0 0-1.0195-0.98047zm3.5664 1.7109a1 1 0 0 0-0.74609 0.16992 1 1 0 0 0-0.23438 1.3945l0.09961 0.14258 0.08398 0.13086 0.07813 0.13477 0.07422 0.14453 0.0293 0.06445 0.03125 0.06836a1 1 0 0 0 1.3164 0.51562 1 1 0 0 0 0.51562-1.3164l-0.03516-0.08008a1.0001 1.0001 0 0 0-0.0098-0.02344l-0.04297-0.0918a1.0001 1.0001 0 0 0-0.01758-0.0332l-0.0918-0.18164a1.0001 1.0001 0 0 0-0.02344-0.04297l-0.10156-0.17578a1.0001 1.0001 0 0 0-0.02539-0.04102l-0.10938-0.17188a1.0001 1.0001 0 0 0-0.02734-0.03906l-0.11523-0.16211a1 1 0 0 0-0.64844-0.40625zm-7.2832 1.3379a1 1 0 0 0-1.2559 0.65039l-0.0059 0.02148a1.0001 1.0001 0 0 0-0.0098 0.0332l-0.04102 0.14258a1.0001 1.0001 0 0 0-0.0078 0.0332l-0.03516 0.14453a1.0001 1.0001 0 0 0-0.0078 0.0332l-0.03125 0.14648a1.0001 1.0001 0 0 0-0.0059 0.03516l-0.02539 0.14648a1.0001 1.0001 0 0 0-0.0059 0.03516l-0.01953 0.14648a1.0001 1.0001 0 0 0-0.0039 0.03516l-0.01367 0.14844a1.0001 1.0001 0 0 0-0.0039 0.03516l-0.0059 0.08398a1 1 0 0 0 0.93359 1.0625 1 1 0 0 0 1.0625-0.93359l0.0039-0.06641 0.01172-0.11328 0.01563-0.11328 0.01953-0.11328 0.02344-0.11133 0.02734-0.11133 0.0293-0.11133 2e-3 -0.0039a1 1 0 0 0-0.65039-1.2559zm6.9766 3.7012a1 1 0 0 0-0.6543 0.39648l-0.0059 0.0098-0.07227 0.08984-0.07422 0.08789-0.07617 0.08398-0.08008 0.08008-0.08398 0.07813-0.08594 0.07617-0.03711 0.03125a1 1 0 0 0-0.14062 1.4082 1 1 0 0 0 1.4062 0.14062l0.05273-0.04297a1.0001 1.0001 0 0 0 0.02539-0.02344l0.11328-0.09766a1.0001 1.0001 0 0 0 0.02539-0.02539l0.10938-0.10156a1.0001 1.0001 0 0 0 0.02539-0.02539l0.10547-0.10742a1.0001 1.0001 0 0 0 0.02539-0.02539l0.10156-0.11133a1.0001 1.0001 0 0 0 0.02344-0.02734l0.09961-0.11523a1.0001 1.0001 0 0 0 0.02148-0.02734l0.0957-0.11914a1.0001 1.0001 0 0 0 0.02148-0.0293l0.017639-0.025419a1 1 0 0 0-0.21484-1.3965 1 1 0 0 0-0.74414-0.18164zm-5.7773 1.0098a1 1 0 0 0-0.63086 0.43555 1 1 0 0 0 0.29688 1.3828l0.13867 0.08789a1.0001 1.0001 0 0 0 0.03125 0.01953l0.14062 0.08398a1.0001 1.0001 0 0 0 0.0332 0.01953l0.14062 0.07617a1.0001 1.0001 0 0 0 0.03516 0.01758l0.14258 0.07032a1.0001 1.0001 0 0 0 0.03516 0.01563l0.14453 0.06445a1.0001 1.0001 0 0 0 0.03516 0.01563l0.14453 0.05664a1.0001 1.0001 0 0 0 0.03711 0.01367l0.03906 0.01367a1 1 0 0 0 1.2773-0.60547 1 1 0 0 0-0.60742-1.2773l-0.02148-0.0078-0.10938-0.04492-0.10938-0.04687-0.10742-0.05469-0.10742-0.05664-0.10547-0.0625-0.12109-0.07813a1 1 0 0 0-0.75195-0.13867z" stroke-dasharray="1, 4.4"/>
  <path id="path3" d="m24.01 15.6-0.4375 0.0039a1.0001 1.0001 0 0 0-0.02148 0l-0.4375 0.01563a1.0001 1.0001 0 0 0-0.01953 0l-0.4375 0.02344a1.0001 1.0001 0 0 0-0.02148 2e-3l-0.42383 0.03125a1 1 0 0 0-0.92383 1.0703 1 1 0 0 0 1.0723 0.92383l0.41211-0.03125 0.41602-0.02148 0.41602-0.01367 0.41797-0.0039 0.41602 0.0039 0.41602 0.01367 0.41602 0.02148 0.41602 0.03125 0.41602 0.03906 0.06055 0.0078a1 1 0 0 0 1.1094-0.87695 1 1 0 0 0-0.87695-1.1094l-0.07227-0.0098a1.0001 1.0001 0 0 0-0.02148-2e-3l-0.43555-0.04102a1.0001 1.0001 0 0 0-0.02148-2e-3l-0.4375-0.03125a1.0001 1.0001 0 0 0-0.01953-2e-3l-0.4375-0.02344a1.0001 1.0001 0 0 0-0.02148 0l-0.4375-0.01563a1.0001 1.0001 0 0 0-0.02148 0l-0.4375-0.0039a1.0001 1.0001 0 0 0-0.02148 0zm-9.834 2.3613-0.36914 0.19336a1.0001 1.0001 0 0 0-0.01953 0.0098l-0.39453 0.2168a1.0001 1.0001 0 0 0-0.01953 0.01172l-0.39062 0.22656a1.0001 1.0001 0 0 0-0.01758 0.01172l-0.38867 0.23438a1.0001 1.0001 0 0 0-0.01367 0.0078l-0.19141 0.12305a1.0001 1.0001 0 0 0-0.0098 0.0059l-0.19138 0.12298a1.0001 1.0001 0 0 0-0.0078 0.0059l-0.19141 0.125a1.0001 1.0001 0 0 0-0.0078 0.0059l-0.18945 0.12891a1.0001 1.0001 0 0 0-0.0098 0.0059l-0.1875 0.13086a1.0001 1.0001 0 0 0-0.0098 0.0059l-0.18555 0.13281a1.0001 1.0001 0 0 0-0.0098 0.0059l-0.18555 0.13672a1.0001 1.0001 0 0 0-0.0078 0.0059l-0.18555 0.13672a1.0001 1.0001 0 0 0-0.0078 0.0078l-0.18359 0.13867a1.0001 1.0001 0 0 0-0.0098 0.0078l-0.13281 0.10352a1 1 0 0 0-0.17383 1.4043 1 1 0 0 0 1.4023 0.17383l0.13086-0.10156 0.17383-0.13281 0.17578-0.13086 0.17578-0.12891 0.17773-0.12695 0.17969-0.12305 0.35938-0.24219 0.18359-0.11719 0.17969-0.11328 0.37109-0.22656 0.37109-0.21484 0.37695-0.20703 0.35938-0.1875a1 1 0 0 0 0.42383-1.3477 1 1 0 0 0-1.3496-0.42578zm20.174 0.25586a1 1 0 0 0-1.3594 0.39453 1 1 0 0 0 0.39453 1.3574l0.29102 0.16016 0.38281 0.2207c0.24302 0.14433 0.48216 0.29452 0.71875 0.44922l0.18555 0.12305 0.17969 0.12109 0.17773 0.12305 0.17774 0.12695 0.17773 0.12891 0.17578 0.13086 0.17383 0.13281 0.17383 0.13476 0.17188 0.13672 0.17578 0.14453a1 1 0 0 0 1.4062-0.14258 1 1 0 0 0-0.14258-1.4082l-0.17969-0.14648a1.0001 1.0001 0 0 0-0.0078-0.0059l-0.18164-0.14453a1.0001 1.0001 0 0 0-0.0098-0.0078l-0.18162-0.1406a1.0001 1.0001 0 0 0-0.0078-0.0078l-0.18359-0.13867a1.0001 1.0001 0 0 0-0.0098-0.0078l-0.18359-0.13672a1.0001 1.0001 0 0 0-0.0098-0.0059l-0.18555-0.13672a1.0001 1.0001 0 0 0-0.0078-0.0059l-0.1875-0.13281a1.0001 1.0001 0 0 0-0.0078-0.0059l-0.18945-0.13086a1.0001 1.0001 0 0 0-0.0078-0.0059l-0.18945-0.12891a1.0001 1.0001 0 0 0-0.0098-0.0059l-0.18945-0.125a1.0001 1.0001 0 0 0-0.0039-0.0039c-0.26539-0.17347-0.53569-0.33994-0.80855-0.50178a1.0001 1.0001 0 0 0-0.0098-0.0059l-0.39062-0.22656a1.0001 1.0001 0 0 0-0.01953-0.01172z" stroke-dasharray="4, 8"/>
  <path id="path4" d="m20.037 5.8965-0.04297 0.00391a1.0001 1.0001 0 0 0-0.01172 0.00195l-0.32227 0.042969a1.0001 1.0001 0 0 0-0.0098 0.00195l-0.32227 0.044922a1.0001 1.0001 0 0 0-0.0098 0.00195l-0.32226 0.050781a1.0001 1.0001 0 0 0-0.0098 0.00195l-0.32227 0.052734a1.0001 1.0001 0 0 0-0.0098 0.00195l-0.32031 0.056641a1.0001 1.0001 0 0 0-0.0098 0.00195l-0.32014 0.058609a1.0001 1.0001 0 0 0-0.01172 0.00195l-0.31836 0.064453a1.0001 1.0001 0 0 0-0.01172 0.00195l-0.31836 0.066406a1.0001 1.0001 0 0 0-0.0098 0.00195l-0.31836 0.070312a1.0001 1.0001 0 0 0-0.01172 0.00391l-0.31637 0.072272a1.0001 1.0001 0 0 0-0.01172 0.00391l-0.31641 0.076172a1.0001 1.0001 0 0 0-0.0098 0.00391l-0.31641 0.080078a1.0001 1.0001 0 0 0-0.01172 0.00195l-0.04492 0.011719a1 1 0 0 0-0.70898 1.2246 1 1 0 0 0 1.2227 0.70898l0.04102-0.011719 0.61328-0.15234 0.30664-0.070312 0.30859-0.068359 0.30859-0.064453 0.30859-0.0625 0.31055-0.056641 0.30859-0.054687 0.31055-0.052734 0.3125-0.046875 0.31055-0.044922 0.3125-0.042969 0.03711-0.00391a1 1 0 0 0 0.87112-1.1133 1 1 0 0 0-1.1133-0.87109zm8.2305 0.039063a1 1 0 0 0-1.123 0.85938 1 1 0 0 0 0.85938 1.123l0.06641 0.00977 0.31055 0.044922 0.3125 0.046875 0.31055 0.052734 0.30859 0.054687 0.31055 0.056641 0.30859 0.0625 0.30859 0.064453 0.30859 0.068359 0.30664 0.070312 0.61328 0.15234 0.30469 0.082031 0.01172 0.00391a1 1 0 0 0 1.2305-0.69727 1 1 0 0 0-0.69531-1.2305l-0.01563-0.00391a1.0001 1.0001 0 0 0-0.01172-0.00391l-0.31445-0.083984a1.0001 1.0001 0 0 0-0.01172-0.00195l-0.31641-0.080078a1.0001 1.0001 0 0 0-0.0098-0.00391l-0.31641-0.076172a1.0001 1.0001 0 0 0-0.01172-0.00391l-0.31641-0.072266a1.0001 1.0001 0 0 0-0.01172-0.00391l-0.31836-0.070312a1.0001 1.0001 0 0 0-0.0098-0.00195l-0.31836-0.066406a1.0001 1.0001 0 0 0-0.01172-0.00195l-0.31836-0.064453a1.0001 1.0001 0 0 0-0.01172-0.00195l-0.32031-0.058594a1.0001 1.0001 0 0 0-0.0098-0.00195l-0.32031-0.056641a1.0001 1.0001 0 0 0-0.0098-0.00195l-0.32212-0.052735a1.0001 1.0001 0 0 0-0.0098-0.00195l-0.32226-0.050781a1.0001 1.0001 0 0 0-0.0098-0.00195l-0.32227-0.044922a1.0001 1.0001 0 0 0-0.0098-0.00195zm-19.152 3.7637a1 1 0 0 0-0.75977 0.09375c-0.26667 0.15117-0.52718 0.307-0.7832 0.46289a1.0001 1.0001 0 0 0-0.00586 2e-3l-0.28516 0.17769a1.0001 1.0001 0 0 0-0.00977 0.0059l-0.28516 0.17969a1.0001 1.0001 0 0 0-0.00781 0.0059l-0.2832 0.18359a1.0001 1.0001 0 0 0-0.00977 0.0059l-0.28125 0.1875a1.0001 1.0001 0 0 0-0.00977 0.0059l-0.2793 0.19141a1.0001 1.0001 0 0 0-0.00977 0.0059l-0.27734 0.19336a1.0001 1.0001 0 0 0-0.00977 0.0059l-0.27539 0.19727a1.0001 1.0001 0 0 0-0.00977 0.0078l-0.27537 0.19899a1.0001 1.0001 0 0 0-0.0078125 0.007812l-0.27344 0.20312a1.0001 1.0001 0 0 0-0.00977 0.0078l-0.058594 0.04492a1 1 0 0 0-0.1875 1.4023 1 1 0 0 0 1.4023 0.18555l0.054687-0.04101 0.26562-0.19727 0.26562-0.19531 0.26758-0.18945 0.26758-0.1875 0.27148-0.18555 0.27148-0.17969 0.27539-0.17773 0.27344-0.17578 0.27734-0.16992 0.00586-0.0039c0.242-0.14728 0.482-0.28935 0.72266-0.42578a1 1 0 0 0 0.37695-1.3633 1 1 0 0 0-0.60352-0.4707zm30.799 0.25a1 1 0 0 0-1.3691 0.35547 1 1 0 0 0 0.35547 1.3691l0.20703 0.12109 0.2793 0.16797 0.27734 0.16992 0.27344 0.17578 0.27539 0.17773 0.27148 0.17969 0.27148 0.18555 0.26758 0.1875 0.26758 0.18945 0.26562 0.19531 0.26562 0.19727 0.26172 0.20117 0.01953 0.01367a1 1 0 0 0 1.4043-0.16992 1 1 0 0 0-0.17188-1.4043l-0.02344-0.01758a1.0001 1.0001 0 0 0-0.0078-0.0078l-0.27148-0.20703a1.0001 1.0001 0 0 0-0.0098-0.0078l-0.27341-0.20315a1.0001 1.0001 0 0 0-0.0078-0.0078l-0.27539-0.19922a1.0001 1.0001 0 0 0-0.0098-0.0078l-0.27539-0.19727a1.0001 1.0001 0 0 0-0.0098-0.0059l-0.27734-0.19336a1.0001 1.0001 0 0 0-0.0098-0.0059l-0.2793-0.19141a1.0001 1.0001 0 0 0-0.0098-0.0059l-0.28125-0.1875a1.0001 1.0001 0 0 0-0.0098-0.0059l-0.2832-0.18359a1.0001 1.0001 0 0 0-0.0078-0.0059l-0.28516-0.17969a1.0001 1.0001 0 0 0-0.0098-0.0059l-0.28516-0.17773a1.0001 1.0001 0 0 0-0.0098-0.0059l-0.28711-0.17188a1.0001 1.0001 0 0 0-0.0098-0.0059z" stroke-dasharray="4, 8" stroke-dashoffset="11"/>
 </g>
</svg>
