<?xml version="1.0" encoding="UTF-8"?>
<svg id="svg1" version="1.1" viewBox="0 0 48 48" xmlns="http://www.w3.org/2000/svg">
 <defs id="defs1">
  <style id="style1">.a{fill:none;stroke:#000;stroke-width:2px;stroke-linecap:round;stroke-linejoin:round;}</style>
 </defs>
 <g id="g1" transform="translate(.23595)" stroke-linecap="round" stroke-linejoin="round">
  <path id="path3" d="m27.527 19a1 1 0 0 0-1 1 1 1 0 0 0 1 1c0.89659 0 1.7601 0.55948 2.2246 1.5703 0.46453 1.0108 0.38798 2.2758-0.18164 3.1973a1 1 0 0 0 0.32422 1.377 1 1 0 0 0 1.377-0.32422c0.94093-1.5222 1.0484-3.4487 0.29688-5.084-0.75151-1.6353-2.304-2.7363-4.041-2.7363z" style="paint-order:stroke fill markers"/>
  <path id="path3-5" d="m28.93 31.879c-0.46258 0.081004-0.9326 0.12109-1.4023 0.12109a0.99999 0.99999 0 0 0-1 1 0.99999 0.99999 0 0 0 1 1c0.58538 0 1.1696-0.05139 1.7461-0.15234a0.99999 0.99999 0 0 0 0.8125-1.1562 0.99999 0.99999 0 0 0-1.1562-0.8125z" style="paint-order:stroke fill markers"/>
  <path id="path3-5-1" d="m27.527 14a0.99999 0.99999 0 0 0-1 1 0.99999 0.99999 0 0 0 1 1c3.2666 0 6.2038 1.9508 7.4512 4.9414 1.2473 2.9906 0.56079 6.4219-1.7461 8.7129a0.99999 0.99999 0 0 0-0.0059 1.4141 0.99999 0.99999 0 0 0 1.4141 0.0059c2.8768-2.857 3.7417-7.1669 2.1836-10.902-1.558-3.7355-5.2327-6.1719-9.2969-6.1719z" style="paint-order:stroke fill markers"/>
  <path id="path3-5-2" d="m27.527 9a1 1 0 0 0-1 1 1 1 0 0 0 1 1c5.5173 0 10.47 3.1871 12.564 8.0391 2.0949 4.8519 0.94668 10.412-2.9375 14.139a1 1 0 0 0-0.0293 1.4141 1 1 0 0 0 1.4141 0.0293c4.4633-4.2817 5.8133-10.764 3.3906-16.375-2.4227-5.611-8.1145-9.2461-14.402-9.2461z" style="paint-order:stroke fill markers"/>
  <path id="path3-5-2-3" d="m32.189 36.211c-1.4931 0.52133-3.0716 0.78906-4.6621 0.78906a1 1 0 0 0-1 1 1 1 0 0 0 1 1c1.8143 0 3.6159-0.3046 5.3223-0.90039a1 1 0 0 0 0.61328-1.2734 1 1 0 0 0-1.2734-0.61524z" style="paint-order:stroke fill markers"/>
 </g>
 <path id="rect1" transform="translate(2.2921)" d="m20.305 8.582c-0.44518 0.032679-0.889 0.19008-1.2773 0.49805l-4.4316 3.5156a1 1 0 0 0-0.16406 1.4062 1 1 0 0 0 1.4062 0.16211l4.4336-3.5156c0.34707-0.27524 0.72852-0.091396 0.72852 0.35156v8.5a1 1 0 0 0 1 1 1 1 0 0 0 1-1v-8.5c1.9e-5 -1.4869-1.3598-2.516-2.6953-2.418zm-10.328 7.6758-1.127 0.89453h-2.5c-2.1973 0-4 1.8027-4 4v5.6953c0 2.1973 1.8027 4 4 4h2.5l10.178 8.0723c1.5534 1.2319 3.9727 0.06262 3.9727-1.9199v-8.5a1 1 0 0 0-1-1 1 1 0 0 0-1 1v8.5c6e-6 0.44296-0.38145 0.6268-0.72852 0.35156l-10.453-8.2871a1.0001 1.0001 0 0 0-0.62109-0.2168h-2.8477c-1.1164 0-2-0.88359-2-2v-5.6953c0-1.1164 0.88359-2 2-2h2.8477a1.0001 1.0001 0 0 0 0.62109-0.2168l1.4004-1.1094a1 1 0 0 0 0.16406-1.4062 1 1 0 0 0-1.4063-0.16211z" stroke-linecap="round" stroke-linejoin="round" style="paint-order:stroke fill markers"/>
 <path id="path1" d="m4 3a1 1 0 0 0-0.70703 0.29297 1 1 0 0 0 0 1.4141l40 40a1 1 0 0 0 1.4141 0 1 1 0 0 0 0-1.4141l-40-40a1 1 0 0 0-0.70703-0.29297z" stroke-linecap="round" stroke-linejoin="round" style="paint-order:stroke fill markers"/>
</svg>
