<?xml version="1.0" encoding="UTF-8"?>
<svg id="svg2" version="1.1" viewBox="0 0 48 48" xmlns="http://www.w3.org/2000/svg">
 <defs id="defs1">
  <style id="style1">.a{fill:none;stroke:#fff;stroke-width:2px;stroke-linecap:round;stroke-linejoin:round;}</style>
 </defs>
 <g id="g1">
  <path id="path1" d="m20.664 3.5c-1.0927 0-2 0.90728-2 2v2h-3.4746c-1.645 0-3 1.355-3 3v31c0 1.645 1.355 3 3 3h17.611c1.645 0 3-1.355 3-3v-31c0-1.645-1.355-3-3-3h-3.4648v-2c0-1.0927-0.90728-2-2-2zm0 2h6.6719v3a1.0001 1.0001 0 0 0 1 1h4.4648c0.56413 0 1 0.43587 1 1v31c0 0.56413-0.43587 1-1 1h-17.611c-0.56413 0-1-0.43587-1-1v-31c0-0.56413 0.43587-1 1-1h4.4746a1.0001 1.0001 0 0 0 1-1z" fill="#fff" stroke-linecap="round" stroke-linejoin="round"/>
  <path id="line2" d="m19.664 7.5a1 1 0 0 0-1 1 1 1 0 0 0 1 1h8.6719a1 1 0 0 0 1-1 1 1 0 0 0-1-1z" fill="#fff" stroke-linecap="round" stroke-linejoin="round"/>
  <g id="g3">
   <g id="path9-9" fill="#fff" stroke-linecap="round" stroke-linejoin="round">
    <path id="path2" d="m22.707 19.684a1.0001 1.0001 0 0 0-0.97266 0.76562l-1.4473 6.0078a1.0001 1.0001 0 0 0 0.97266 1.2344h1.0254l-0.875 3.373a1.0001 1.0001 0 0 0 1.7949 0.81445l4.3613-6.3926a1.0001 1.0001 0 0 0-0.82617-1.5625h-1.2266l0.88867-2.9512a1.0001 1.0001 0 0 0-0.95703-1.2891zm0.78711 2h0.60547l-0.88867 2.9512a1.0001 1.0001 0 0 0 0.70312 1.1621 1.0001 1.0001 0 0 0-0.33594-0.10547h-1.0488zm0.69726 4.2402h0.65625l-0.32812 0.48047a1.0001 1.0001 0 0 0-0.32812-0.48047z" style="paint-order:stroke fill markers"/>
    <path id="path3" d="m25.445 20.684h-2.7386l-1.4469 6.0063h2.3188l-1.1991 4.6257 4.3618-6.3927h-2.573z" style="paint-order:stroke fill markers"/>
   </g>
  </g>
 </g>
</svg>
