<?xml version="1.0" encoding="UTF-8"?>
<svg id="svg6" version="1.1" viewBox="0 0 48 48" xml:space="preserve" xmlns="http://www.w3.org/2000/svg"><defs id="defs1"><style id="style1">.a{fill:none;stroke:#fff;stroke-width:2px;stroke-linecap:round;stroke-linejoin:round;}</style></defs><path id="path7" d="m33.744 8.2988a1 1 0 0 0-1 1v10.721a1.0001 1.0001 0 0 0 1.709 0.70508l2.6406-2.6484 2.7031 3.1875a1.0001 1.0001 0 0 0 1.7637-0.64844v-10.721a1 1 0 0 0-1-1 1 1 0 0 0-1 1v8l-1.6465-1.9395a1.0001 1.0001 0 0 0-1.4707-0.05859l-1.6992 1.7031v-8.3008a1 1 0 0 0-1-1z" fill="#fff" stroke-linecap="round" stroke-linejoin="round" style="paint-order:stroke fill markers"/><g id="g6" transform="matrix(1.0905 0 0 1.0919 27.027 18.215)" fill="#fff" stroke-linecap="round" stroke-linejoin="round" stroke-width=".9164"><path id="path8" transform="matrix(1 0 0 1 .00043773 .00017846)" d="m-9.4863-9.9941c-3.2788-0.13519-8.619 0.68904-11.049 1.0879-1.1696 0.19199-1.9983 1.1878-1.9961 2.3652l0.04687 24.982c0.0011 0.58293 0.25602 1.1621 0.7168 1.5117s1.0807 0.43726 1.6406 0.28906c2.3325-0.61733 7.6588-1.8523 10.387-1.6914 0.98912 0.05833 2.7103 0.54475 4.1074 1.0293s2.5 0.95117 2.5 0.95117a0.91648 0.91648 0 0 0 1.2734-0.84375v-27.48a0.91648 0.91648 0 0 0-0.67969-0.88477s-4.3924-1.2111-6.9473-1.3164zm-0.074219 1.832c1.8086 0.07457 5.0941 0.92878 5.8691 1.125v25.396c-0.47344-0.18683-0.59164-0.25028-1.3398-0.50977-1.4593-0.50611-3.1952-1.046-4.6016-1.1289-3.3615-0.19822-8.5749 1.118-10.963 1.75-0.10648 0.02818-0.08912 0.0028-0.06445 0.02148 0.02467 0.01872 0.01 0.05213 0.0098-0.05469l-0.04883-24.982c-3.81e-4 -0.20204 0.26932-0.52128 0.46094-0.55273 2.3928-0.39277 7.8065-1.1828 10.678-1.0645z" style="paint-order:stroke fill markers"/><path id="path8-3" transform="matrix(-1 0 0 1 -5.5513 .00032136)" d="m-9.4863-9.9941c-3.2788-0.13519-8.619 0.68904-11.049 1.0879-1.1696 0.19199-1.9983 1.1878-1.9961 2.3652l0.04687 24.982c0.0011 0.58293 0.25602 1.1621 0.7168 1.5117 0.46077 0.34959 1.0807 0.43726 1.6406 0.28906 2.3325-0.61733 7.6588-1.8523 10.387-1.6914 0.98912 0.05833 2.7103 0.54475 4.1074 1.0293s2.5 0.95117 2.5 0.95117a0.91648 0.91648 0 0 0 1.2734-0.84375v-27.48a0.91648 0.91648 0 0 0-0.67969-0.88477s-4.3924-1.2111-6.9473-1.3164zm-0.074219 1.832c1.8086 0.07457 5.0941 0.92878 5.8691 1.125v25.396c-0.47344-0.18683-0.59164-0.25028-1.3398-0.50977-1.4593-0.50611-3.1952-1.046-4.6016-1.1289-3.3615-0.19822-8.5749 1.118-10.963 1.75-0.10648 0.02818-0.08912 0.0028-0.06445 0.02148 0.02467 0.01872 0.01 0.05213 0.0098-0.05469l-0.04883-24.982c-3.81e-4 -0.20204 0.26932-0.52128 0.46094-0.55273 2.3928-0.39277 7.8065-1.1828 10.678-1.0645z" style="paint-order:stroke fill markers"/></g></svg>
