<?xml version="1.0" encoding="UTF-8"?>
<svg id="a" version="1.1" viewBox="0 0 48 48" xml:space="preserve" xmlns="http://www.w3.org/2000/svg"><defs id="defs1"><style id="style1">.b{fill:none;stroke:#fff;stroke-width:2px;stroke-linecap:round;stroke-linejoin:round;}</style></defs><path id="path2" transform="matrix(1.0946 0 0 1.0946 -2.2703 -2.2703)" d="m9.5 4.5859c-2.7029 0-4.9141 2.2112-4.9141 4.9141v29c0 2.7029 2.2112 4.9141 4.9141 4.9141h29c2.7029 0 4.9141-2.2112 4.9141-4.9141v-29c0-2.7029-2.2112-4.9141-4.9141-4.9141zm0 1.8281h29c1.7153 0 3.0859 1.3706 3.0859 3.0859v29c0 1.7153-1.3706 3.0859-3.0859 3.0859h-29c-1.7153 0-3.0859-1.3706-3.0859-3.0859v-29c0-1.7153 1.3706-3.0859 3.0859-3.0859z" fill="#fff" stroke-linecap="round" stroke-linejoin="round"/><path id="path5475" transform="matrix(1.0216 0 0 1.0247 -39.631 -1.3117)" d="m60.635 10.484c-0.35675 0-0.67115 0.035-0.99219 0.14453-0.16052 0.05477-0.32931 0.1204-0.52344 0.29297-0.19413 0.17257-0.43047 0.56702-0.375 0.98242-0.0034-0.02577-0.0085 0.22999-0.0059 0.21484-0.03946 0.22586-0.27824 0.78509-0.7793 1.5039-0.2757 0.39552-0.83693 1.0999-1.1836 1.5391l-2.7324 3.4609v-2.7109c0-0.56238-8.8e-4 -1.4672 0.04297-1.9004 0.05694-0.56249 0.17137-1.0042 0.31445-1.3242 0.17056-0.38147 0.32911-0.86751 0.05273-1.4297-0.27638-0.56218-0.92456-0.77148-1.3926-0.77148h-6.3457c-0.42932 0-0.96307 0.06376-1.3359 0.59375-0.18643 0.265-0.24752 0.61228-0.2168 0.88086 0.03073 0.26858 0.12396 0.47576 0.23242 0.6582 0.09789 0.16466 0.3 1.0016 0.32227 1.3555 0.02916 0.46363 0.01563 1.364 0.01563 1.9375v17.58c0 0.5702 0.01277 1.4195-0.0078 1.8223-0.02209 0.4324-0.22814 1.2836-0.27539 1.373-0.19482 0.36866-0.40042 0.85112-0.12695 1.4453 0.13673 0.2971 0.41119 0.5339 0.66797 0.64648s0.495 0.13867 0.72461 0.13867h6.3457c0.46813 0 1.1161-0.20976 1.3926-0.77148 0.27643-0.56172 0.11743-1.0481-0.05273-1.4297-0.14397-0.32288-0.25755-0.77108-0.31445-1.3418-0.04336-0.43505-0.04297-1.3401-0.04297-1.9023v-3.1074l2.7754 3.7891c0.33028 0.45095 0.86412 1.1786 1.1133 1.5762 0.21717 0.34651 0.32281 0.51312 0.67578 1.75l-0.03711-0.28711c-0.0089 0.48744 0.22129 0.97604 0.58203 1.2812 0.36074 0.30521 0.82281 0.44336 1.2891 0.44336h7.125c0.30162 0 0.55846-0.0086 0.7793-0.0332 0.11042-0.01231 0.19204-0.01713 0.37109-0.07617 0.08953-0.02952 0.22263-9.38e-4 0.49023-0.33203 0.1338-0.16555 0.26689-0.53472 0.19336-0.84766-0.07353-0.31294-0.24675-0.46744-0.35156-0.55078-0.30573-0.24312-0.9318-0.90338-1.2617-1.291-0.20999-0.24672-0.39783-0.47286-0.56445-0.67773-0.31305-0.38491-0.84498-1.1114-1.168-1.5566l-6.7988-9.3711c-0.09072-0.12505-0.08696-0.28384 0.0098-0.4043l5.4277-6.7598c0.34612-0.43104 0.9077-1.1285 1.252-1.5527 0.05918-0.07294 0.11487-0.14337 0.16992-0.21094 0.36275-0.44517 0.92024-1.1542 1.2383-1.5039 0.30644-0.33691 0.63732-0.64985 0.99023-0.9375 0.16041-0.13075 0.30667-0.26599 0.43945-0.47852 0.13278-0.21253 0.27798-0.58178 0.14453-1.002-0.13345-0.42018-0.49258-0.65452-0.73828-0.74414-0.2457-0.08962-0.44822-0.10352-0.6582-0.10352zm-13.342 1.9551h5.1875c-0.14024 0.43589-0.28798 0.86464-0.33984 1.377-0.06735 0.66531-0.05273 1.5535-0.05273 2.0957v4.5273c0 0.57583 0.41176 1.0838 0.89062 1.25 0.47886 0.16624 1.1178 0.02227 1.4746-0.42969l3.8574-4.8848c0.33776-0.42784 0.89612-1.1223 1.252-1.6328 0.58293-0.83628 0.97116-1.5408 1.1016-2.2871 9.94e-4 -0.0057-9.6e-4 -0.01 0-0.01563h5.2402c-0.42439 0.46714-0.96864 1.1701-1.3027 1.5801-0.05587 0.06857-0.11382 0.13893-0.17383 0.21289-0.35171 0.43345-0.91235 1.1323-1.2578 1.5625l-5.4277 6.7598c-0.64265 0.80034-0.67108 1.9446-0.06836 2.7754l6.7988 9.3691c0.32562 0.44885 0.8486 1.1707 1.2324 1.6426 0.15537 0.19103 0.33359 0.40158 0.51953 0.62109h-5.7324l-0.0059-0.01953c-0.37512-1.3146-0.63915-1.8383-0.8984-2.252-0.33739-0.53833-0.87097-1.2512-1.1934-1.6914l-3.9492-5.3926c-0.33942-0.46343-0.97709-0.62571-1.457-0.46875s-0.90039 0.6658-0.90039 1.2402v5.0938c0 0.54238-0.01341 1.4321 0.05273 2.0957 0.05181 0.51964 0.19828 0.95363 0.33984 1.3945h-5.1582c0.16223-0.53006 0.32926-1.0741 0.35352-1.5488 0.02858-0.55937 0.01172-1.3875 0.01172-1.9219v-17.58c0-0.53111 0.02063-1.4222-0.01953-2.0605-0.02419-0.3846-0.2272-0.9145-0.375-1.4121z" fill="#fff"/><path id="path8" d="m37.121 9.4336c-2.2924 0-4.1719 1.8807-4.1719 4.1738 0 2.2931 1.8794 4.1738 4.1719 4.1738 2.2924 0 4.1719-1.8807 4.1719-4.1738 0-2.2931-1.8794-4.1738-4.1719-4.1738zm0 2c1.2105 0 2.1719 0.96056 2.1719 2.1738 0 1.2133-0.96139 2.1738-2.1719 2.1738-1.2105 0-2.1719-0.96057-2.1719-2.1738 0-1.2133 0.96139-2.1738 2.1719-2.1738zm-3.3691 7.3301a1.0001 1.0001 0 0 0-0.83594 1.5488s0.1145 0.17614 0.24023 0.40625c0.12167 0.22266 0.22795 0.51045 0.23438 0.52539 0.04584 0.43926 0.06521 0.88227 0.05273 1.3242a1.0001 1.0001 0 0 0 0 0.02734v12.107a1.0001 1.0001 0 0 0 0 0.02734c0.0121 0.44981-0.0088 0.8984-0.05469 1.3457-0.0058 0.0112-0.11177 0.30282-0.23633 0.52734-0.1287 0.232-0.24805 0.4082-0.24805 0.4082a1.0001 1.0001 0 0 0 0.83203 1.5547h6.7637a1.0001 1.0001 0 0 0 0.83203-1.5547s-0.11936-0.17628-0.24805-0.4082c-0.12548-0.22615-0.23417-0.52487-0.23828-0.53125-0.04647-0.44514-0.06564-0.89186-0.05273-1.3398a1.0001 1.0001 0 0 0 0-0.0293v-14.939a1.0001 1.0001 0 0 0-1-1zm1.5566 2h3.4844v13.91c-0.01604 0.55662 0.0077 1.1145 0.06836 1.668a1.0001 1.0001 0 0 0 0.0078 0.06445c0.01238 0.07029 0.04814 0.09579 0.06445 0.16016h-3.6309c0.01633-0.06432 0.05205-0.08993 0.06445-0.16016a1.0001 1.0001 0 0 0 0.0098-0.06641c0.0593-0.55212 0.08135-1.1086 0.06641-1.6641v-12.053c0.01555-0.55108-0.0063-1.1026-0.06641-1.6504a1.0001 1.0001 0 0 0-0.01172-0.06836c-0.01114-0.06132-0.04251-0.08385-0.05664-0.14062z" fill="#fff" stroke-linecap="round" stroke-linejoin="round" style="paint-order:stroke fill markers"/></svg>
