<?xml version='1.0' encoding='UTF-8'?>
<svg xmlns:inkscape="http://www.inkscape.org/namespaces/inkscape" xmlns:sodipodi="http://sodipodi.sourceforge.net/DTD/sodipodi-0.dtd" xmlns="http://www.w3.org/2000/svg" xmlns:svg="http://www.w3.org/2000/svg" viewBox="0 0 48 48" version="1.1" id="svg6" sodipodi:docname="folder-games.svg" inkscape:version="1.4 (e7c3feb100, 2024-10-09)">
  <sodipodi:namedview id="namedview6" pagecolor="#fff" bordercolor="#fff" borderopacity="0.25" inkscape:showpageshadow="2" inkscape:pageopacity="0.0" inkscape:pagecheckerboard="0" inkscape:deskcolor="#d1d1d1" inkscape:zoom="8.34375" inkscape:cx="17.617978" inkscape:cy="40.089888" inkscape:window-width="1920" inkscape:window-height="1054" inkscape:window-x="0" inkscape:window-y="0" inkscape:window-maximized="1" inkscape:current-layer="svg6"/>
  <defs id="defs1">
    <style id="style1">.c{stroke-miterlimit:10;}.c,.d{fill:none;stroke:#fff;}.d{stroke-linecap:round;stroke-linejoin:round;}.e{fill:#fff;stroke-width:2px;}</style>
  </defs>
  <g id="a" transform="translate(0,-5e-5)" style="stroke-width:2;stroke-dasharray:none">
    <path class="d" d="m 4.5,11.5 c 0,-1.6569 1.3431,-3 3,-3 h 8.7181 c 0.8337,0 1.6465,0.2605 2.325,0.7451 l 4.9138,3.5099 c 0.6784,0.4846 1.4913,0.7451 2.325,0.7451 H 40.5 c 1.6569,0 3,1.3431 3,3 v 20 c 0,1.6569 -1.3431,3 -3,3 h -33 c -1.6569,0 -3,-1.3431 -3,-3 z" id="path1" style="fill:none;stroke:#fff;stroke-width:2;stroke-linecap:round;stroke-linejoin:round;stroke-dasharray:none"/>
  </g>
  <g id="b" transform="translate(0,-5e-5)" style="stroke-width:2;stroke-dasharray:none">
    <path class="c" d="M 30.1553,21.4639 H 18.02 c -2.7814,0.0089 -5.0289,2.2709 -5.02,5.0522 0.0089,2.7814 2.2709,5.0289 5.0522,5.02 1.2245,-0.0039 2.4055,-0.4538 3.3223,-1.2655 h 5.4695 c 0.9188,0.8114 2.1028,1.2584 3.3285,1.2569 v 0 c 2.779,-0.1154 4.9383,-2.4617 4.8229,-5.2407 -0.1087,-2.6173 -2.2056,-4.7143 -4.8229,-4.8229 h -0.0173 z" id="path2" style="fill:none;stroke:#fff;stroke-width:2;stroke-miterlimit:10;stroke-dasharray:none"/>
    <line class="d" x1="15.7837" y1="26.3787" x2="20.2651" y2="26.3787" id="line2" style="fill:none;stroke:#fff;stroke-width:2;stroke-linecap:round;stroke-linejoin:round;stroke-dasharray:none"/>
    <line class="d" x1="18.0287" y1="24.211599" x2="18.0287" y2="28.615" id="line3" style="fill:none;stroke:#fff;stroke-width:2;stroke-linecap:round;stroke-linejoin:round;stroke-dasharray:none"/>
    <path class="e" d="m 27.750059,27.423944 c -0.560539,0 -1.01506,-0.45452 -1.01506,-1.01506 0,-0.560539 0.454521,-1.01506 1.01506,-1.01506 0.56054,0 1.01506,0.454521 1.01506,1.01506 0,0.56054 -0.45452,1.01506 -1.01506,1.01506 z" id="path3" style="fill:#fff;stroke-width:2;stroke-dasharray:none"/>
    <path class="e" d="m 29.932133,29.614851 c -0.56054,0 -1.01506,-0.454521 -1.01506,-1.01506 0,-0.56054 0.45452,-1.01506 1.01506,-1.01506 0.56054,0 1.01506,0.45452 1.01506,1.01506 0,0.560539 -0.45452,1.01506 -1.01506,1.01506 z" id="path4" style="fill:#fff;stroke-width:2;stroke-dasharray:none"/>
    <path class="e" d="m 32.122938,27.423944 c -0.560539,0 -1.01506,-0.45452 -1.01506,-1.01506 0,-0.560539 0.454521,-1.01506 1.01506,-1.01506 0.560539,0 1.015061,0.454521 1.015061,1.01506 0,0.56054 -0.454522,1.01506 -1.015061,1.01506 z" id="path5" style="fill:#fff;stroke-width:2;stroke-dasharray:none"/>
    <path class="e" d="m 29.932133,25.241869 c -0.56054,0 -1.01506,-0.45452 -1.01506,-1.01506 0,-0.56054 0.45452,-1.01506 1.01506,-1.01506 0.56054,0 1.01506,0.45452 1.01506,1.01506 0,0.56054 -0.45452,1.01506 -1.01506,1.01506 z" id="path6" style="fill:#fff;stroke-width:2;stroke-dasharray:none"/>
  </g>
</svg>