<?xml version='1.0' encoding='UTF-8'?>
<svg xmlns:inkscape="http://www.inkscape.org/namespaces/inkscape" xmlns:sodipodi="http://sodipodi.sourceforge.net/DTD/sodipodi-0.dtd" xmlns="http://www.w3.org/2000/svg" xmlns:svg="http://www.w3.org/2000/svg" viewBox="0 0 48 48" version="1.1" id="svg1" sodipodi:docname="mullvad-vpn.svg" xml:space="preserve" inkscape:version="1.4 (e7c3feb100, 2024-10-09)"><sodipodi:namedview id="namedview1" pagecolor="#ffffff" bordercolor="#000000" borderopacity="0.25" inkscape:showpageshadow="2" inkscape:pageopacity="0.0" inkscape:pagecheckerboard="0" inkscape:deskcolor="#d1d1d1" inkscape:zoom="4.390625" inkscape:cx="11.046263" inkscape:cy="1.13879" inkscape:window-width="1707" inkscape:window-height="1041" inkscape:window-x="0" inkscape:window-y="0" inkscape:window-maximized="1" inkscape:current-layer="svg1"/><defs id="defs1"><style id="style1">.a{fill:none;stroke:#fff;stroke-width:2px;stroke-linecap:round;stroke-linejoin:round;}</style></defs><circle style="fill:none;stroke:#ffffff;stroke-width:2;stroke-linecap:round;stroke-linejoin:round;stroke-opacity:1;paint-order:stroke fill markers" id="path2" cx="24" cy="24" r="21.792168"/><g id="g4" inkscape:label="Hat" transform="matrix(1.0912396,0,0,1.0912396,0.22896059,-2.6126787)" style="fill:none;stroke:#ffffff;stroke-width:0.916389;stroke-opacity:1"><path style="fill:none;stroke:#ffffff;stroke-width:2;stroke-linecap:round;stroke-linejoin:round;stroke-opacity:1;paint-order:stroke fill markers" d="m 24.436784,10.040838 2.402944,2.5637 -0.313796,2.382439 -2.581442,0.249831 -2.880533,-2.177037" id="path6" sodipodi:nodetypes="ccccc" transform="matrix(0.91638903,0,0,0.91638903,0.31197038,2.3942301)"/><path style="fill:none;stroke:#ffffff;stroke-width:1.83278;stroke-linecap:round;stroke-linejoin:round;stroke-opacity:1;paint-order:stroke fill markers" d="m 15.53888,14.333381 4.075869,0.02868 3.090822,-2.766517 4.750951,-0.88577 4.750953,2.898886 1.610492,4.267804 -2.013115,6.522494 -7.456251,-3.759718 z" id="path4" sodipodi:nodetypes="ccccccccc"/></g><g id="g1" inkscape:label="Mole" style="fill:none;stroke:#ffffff;stroke-opacity:1"><path style="fill:none;stroke:#ffffff;stroke-width:2;stroke-linecap:round;stroke-linejoin:round;stroke-opacity:1;paint-order:stroke fill markers" d="m 17.407051,28.493891 4.884247,0.632217 2.112578,-1.73977" id="path5" sodipodi:nodetypes="ccc"/><path style="fill:none;stroke:#ffffff;stroke-width:1.83278;stroke-opacity:1;stroke-linecap:round;stroke-linejoin:round;paint-order:stroke fill markers" d="m 16.42465,17.63489 -5.878296,0.161055 -3.1486133,0.36906 1.216023,3.012973 7.6498373,7.327741 0.644197,3.784657 -4.267805,2.496263 5.360327,3.194031 5.107873,1.556921 5.863403,-0.934489 5.248995,-2.769643 -2.093641,-3.301514 -1.610492,-6.200395 -7.32774,-3.865183 z" id="path3" sodipodi:nodetypes="ccccccccccccccc" transform="matrix(1.0912396,0,0,1.0912396,-0.34043443,-2.6126787)"/></g></svg>